<?xml version="1.0" encoding="UTF-8" standalone="no"?>
<!-- Created with Inkscape (http://www.inkscape.org/) -->

<svg
   version="1.1"
   id="svg1"
   width="336"
   height="192"
   viewBox="0 0 336 192"
   xmlns:xlink="http://www.w3.org/1999/xlink"
   xmlns="http://www.w3.org/2000/svg"
   xmlns:svg="http://www.w3.org/2000/svg">
  <defs
     id="defs1">
    <linearGradient
       id="linearGradient24">
      <stop
         style="stop-color:#000000;stop-opacity:1;"
         offset="0.76487255"
         id="stop24" />
      <stop
         style="stop-color:#000000;stop-opacity:0;"
         offset="1"
         id="stop25" />
    </linearGradient>
    <linearGradient
       id="linearGradient6">
      <stop
         style="stop-color:#000000;stop-opacity:1;"
         offset="0.96341461"
         id="stop7" />
      <stop
         style="stop-color:#000000;stop-opacity:0;"
         offset="1"
         id="stop8" />
    </linearGradient>
    <linearGradient
       id="linearGradient63">
      <stop
         style="stop-color:#000025;stop-opacity:1;"
         offset="0"
         id="stop64" />
      <stop
         style="stop-color:#030200;stop-opacity:1;"
         offset="0.96784562"
         id="stop6" />
      <stop
         style="stop-color:#010067;stop-opacity:1;"
         offset="0.96784562"
         id="stop65" />
    </linearGradient>
    <linearGradient
       id="swatch35">
      <stop
         style="stop-color:#000000;stop-opacity:1;"
         offset="0"
         id="stop35" />
    </linearGradient>
    <radialGradient
       xlink:href="#linearGradient63"
       id="radialGradient65"
       cx="91.650002"
       cy="85.940002"
       fx="91.650002"
       fy="85.940002"
       r="21.392338"
       gradientUnits="userSpaceOnUse" />
    <radialGradient
       xlink:href="#linearGradient6"
       id="radialGradient8"
       cx="191.59367"
       cy="103.52943"
       fx="191.59367"
       fy="103.52943"
       r="26.136438"
       gradientTransform="matrix(1,0,0,1.0147755,-7.136788,-10.097903)"
       gradientUnits="userSpaceOnUse" />
    <filter
       style="color-interpolation-filters:sRGB"
       id="filter11"
       x="-0.028968752"
       y="-0.56732046"
       width="1.0579375"
       height="2.1346409">
      <feGaussianBlur
         stdDeviation="1.3335288"
         id="feGaussianBlur11" />
    </filter>
    <radialGradient
       xlink:href="#linearGradient24"
       id="radialGradient25"
       cx="184.53922"
       cy="94.804062"
       fx="184.53922"
       fy="94.804062"
       r="4.9367237"
       gradientUnits="userSpaceOnUse" />
    <filter
       style="color-interpolation-filters:sRGB"
       id="filter28"
       x="-0.04346722"
       y="-0.04346722"
       width="1.0869344"
       height="1.0869344">
      <feGaussianBlur
         stdDeviation="0.24413786"
         id="feGaussianBlur28" />
    </filter>
    <filter
       style="color-interpolation-filters:sRGB"
       id="filter28-6"
       x="-0.094514048"
       y="-0.094514048"
       width="1.1890281"
       height="1.1890281">
      <feGaussianBlur
         stdDeviation="0.53084731"
         id="feGaussianBlur28-5" />
    </filter>
    <filter
       style="color-interpolation-filters:sRGB"
       id="filter29"
       x="-0.049234472"
       y="-0.042667218"
       width="1.0984689"
       height="1.0853344">
      <feGaussianBlur
         stdDeviation="0.13462466"
         id="feGaussianBlur29" />
    </filter>
  </defs>
  <g
     id="layer12"
     style="display:inline">
    <path
       style="opacity:0.945161;fill:none;fill-opacity:1;stroke:#000000;stroke-width:0.633313;stroke-linecap:round;stroke-linejoin:round;stroke-dasharray:none;paint-order:stroke markers fill;filter:url(#filter29)"
       d="m 184.45689,94.961227 -0.009,14.993873 m -6.48803,-11.253201 12.98057,7.504731 m -12.98957,-0.008 12.98957,-7.48914 m -6.50154,11.2454 0.009,-14.99387 m 6.48803,11.2532 -12.98057,-7.50473 m 12.98957,0.0078 -12.98957,7.489142"
       id="path26"
       transform="matrix(1.5789978,0,0,1.5789978,-106.78592,-66.78121)" />
    <g
       id="g28"
       style="stroke-width:2;stroke-dasharray:none">
      <path
         style="fill:none;fill-opacity:1;stroke:#000000;stroke-width:2;stroke-linecap:round;stroke-linejoin:round;stroke-dasharray:none;paint-order:stroke markers fill"
         d="m 206,95 h -9"
         id="path27" />
      <path
         style="fill:none;fill-opacity:1;stroke:#000000;stroke-width:2;stroke-linecap:round;stroke-linejoin:round;stroke-dasharray:none;paint-order:stroke markers fill"
         d="m 195.18817,113.54986 -4.5,-7.79423"
         id="path27-2" />
      <path
         style="fill:none;fill-opacity:1;stroke:#000000;stroke-width:2;stroke-linecap:round;stroke-linejoin:round;stroke-dasharray:none;paint-order:stroke markers fill"
         d="m 173.71761,113.46147 4.5,-7.79423"
         id="path27-2-8" />
      <path
         style="fill:none;fill-opacity:1;stroke:#000000;stroke-width:2;stroke-linecap:round;stroke-linejoin:round;stroke-dasharray:none;paint-order:stroke markers fill"
         d="m 163.05888,94.823224 9,-10e-7"
         id="path27-2-8-3" />
      <path
         style="fill:none;fill-opacity:1;stroke:#000000;stroke-width:2;stroke-linecap:round;stroke-linejoin:round;stroke-dasharray:none;paint-order:stroke markers fill"
         d="m 173.8707,76.27337 4.50001,7.794228"
         id="path27-2-8-3-3" />
      <path
         style="fill:none;fill-opacity:1;stroke:#000000;stroke-width:2;stroke-linecap:round;stroke-linejoin:round;stroke-dasharray:none;paint-order:stroke markers fill"
         d="m 195.34126,76.361754 -4.49999,7.794237"
         id="path27-2-8-3-3-4" />
    </g>
  </g>
  <g
     id="layer6"
     style="display:none">
    <path
       style="opacity:0.946548;fill:url(#radialGradient65);fill-opacity:1;stroke:none;stroke-width:5;stroke-linecap:round;stroke-linejoin:round;stroke-dasharray:none;stroke-opacity:1;paint-order:stroke fill markers"
       d="m 92.545881,87.426182 c 16.759639,-5.804364 24.382849,10e-7 18.557979,10e-7 z m 0.354126,-0.282511 C 107.5863,77.199372 116.45203,80.832926 110.82564,82.340513 Z m 0.26894,-0.36454 C 104.78104,73.372585 114.28511,74.587707 109.24063,77.500142 Z m 0.165426,-0.421725 C 101.08092,70.402246 110.57565,69.116129 106.45685,73.234934 Z m 0.05064,-0.450171 C 96.738105,68.49078 105.57644,64.791069 102.664,69.835555 Z m -0.0676,-0.447937 C 92.048541,67.76845 99.628159,61.907274 98.120572,67.533667 Z m -0.181231,-0.415179 c -5.804364,-16.759639 10e-7,-24.382849 10e-7,-18.557979 z M 92.853671,84.689993 C 82.909372,70.003705 86.542926,61.137969 88.050513,66.764362 Z m -0.36454,-0.26894 C 79.082585,72.808962 80.297707,63.304886 83.210142,68.349372 Z M 92.067406,84.255627 C 76.112246,76.509078 74.826129,67.014349 78.944934,71.133154 Z m -0.450171,-0.05064 C 74.20078,80.851895 70.501069,72.013563 75.545555,74.925998 Z m -0.447937,0.0676 C 73.47845,85.541459 67.617274,77.961841 73.243667,79.469428 Z m -0.415179,0.181231 c -16.759639,5.804364 -24.382849,-10e-7 -18.557979,-10e-7 z m -0.354126,0.282511 c -14.686288,9.944299 -23.552024,6.310745 -17.925631,4.803158 z m -0.26894,0.36454 C 78.518962,98.507415 69.014886,97.292293 74.059372,94.379858 Z m -0.165426,0.421725 C 82.219078,101.47775 72.724349,102.76387 76.843154,98.645066 Z m -0.05064,0.450171 c -3.353093,17.416455 -12.191425,21.116165 -9.27899,16.071685 z m 0.0676,0.447937 c 1.268872,17.690848 -6.310746,23.552028 -4.803159,17.925628 z m 0.181231,0.415179 c 5.804364,16.759639 -1e-6,24.382849 -1e-6,18.557979 z m 0.282511,0.354126 c 9.944301,14.686293 6.310745,23.552023 4.803158,17.925633 z m 0.36454,0.26894 c 13.406551,11.612091 12.191421,21.116163 9.278991,16.071683 z m 0.421725,0.165426 c 15.955156,7.746549 17.241276,17.241277 13.122476,13.122477 z m 0.450171,0.05064 c 17.416455,3.353093 21.116165,12.191425 16.071685,9.27899 z m 0.447937,-0.0676 c 17.690848,-1.268872 23.552028,6.310746 17.925628,4.803159 z"
       id="path29"
       transform="translate(92.806879,9.0212237)" />
  </g>
  <g
     id="layer4"
     style="display:inline">
    <ellipse
       style="display:inline;opacity:1;fill:none;fill-opacity:1;stroke:url(#radialGradient8);stroke-width:5;stroke-linecap:round;stroke-linejoin:round;stroke-dasharray:none;stroke-opacity:1;paint-order:stroke fill markers"
       id="path3"
       cx="184.45689"
       cy="94.961227"
       rx="23.351938"
       ry="23.738117" />
  </g>
  <g
     id="layer2"
     transform="translate(-0.08232359,0.15716323)"
     style="display:inline;mix-blend-mode:darken">
    <circle
       style="display:inline;fill:url(#radialGradient25);stroke-width:7.41174;stroke-linejoin:round;stroke-dasharray:none"
       id="path1-9"
       cx="184.53922"
       cy="94.804062"
       r="4.9367237" />
  </g>
  <g
     id="layer8"
     style="display:inline">
    <path
       style="display:inline;opacity:1;fill:none;fill-opacity:0.389831;stroke:#000000;stroke-width:4;stroke-linecap:round;stroke-linejoin:round;stroke-dasharray:none;stroke-dashoffset:0;stroke-opacity:1;paint-order:stroke markers fill"
       d="m 213.84178,108.96134 0.10905,-28.000448 13.32848,14.290014 12.94453,-14.290014 0.4797,28.000448"
       id="path10" />
  </g>
  <g
     id="layer9"
     style="display:inline">
    <path
       style="display:inline;opacity:1;fill:none;fill-opacity:0.389831;stroke:#000000;stroke-width:4;stroke-linecap:round;stroke-linejoin:round;stroke-dasharray:none;paint-order:stroke markers fill"
       d="M 102.38902,80.959918 115.54809,109.19963 130,80.723011"
       id="path5" />
    <path
       style="display:inline;opacity:1;fill:none;fill-opacity:0.389831;fill-rule:nonzero;stroke:#000000;stroke-width:4;stroke-linecap:round;stroke-linejoin:round;stroke-dasharray:none;paint-order:stroke markers fill"
       d="m 135.32205,80.947308 11.13257,14.488206 11.73993,-14.488206 -11.73993,14.488206 -0.15842,13.539626"
       id="path6" />
    <path
       style="display:none;mix-blend-mode:normal;fill:none;fill-opacity:0.389831;stroke:#000000;stroke-width:2;stroke-linecap:round;stroke-linejoin:round;stroke-dasharray:none;stroke-opacity:1;paint-order:stroke markers fill;filter:url(#filter11)"
       d="m 100.35672,119 c 64.45689,0 69.4556,7.40405 83.91378,7.40405 15.54311,0 20.54311,-7.40405 61.08622,-7.40405"
       id="path11-0-4" />
  </g>
  <g
     id="layer7"
     style="display:inline">
    <g
       id="g15"
       transform="translate(0.08838835,-1.1929985)">
      <path
         style="fill:none;stroke:#000000;stroke-width:1;stroke-linecap:square;stroke-linejoin:round;stroke-dasharray:none;paint-order:stroke markers fill"
         d="m 135.11329,130.65355 v 10.35093 c 0,0 9.50872,0.39133 9.52731,-4.97904 0.0202,-5.82858 -9.52731,-5.37189 -9.52731,-5.37189 z"
         id="path4" />
      <path
         style="fill:none;stroke:#000000;stroke-width:1;stroke-linecap:square;stroke-linejoin:round;stroke-dasharray:none;paint-order:stroke markers fill"
         d="m 156.34698,130.80516 -8.48369,0.0484 v 10 h 9 -9 v -5 l 4.50817,-0.0415"
         id="path7" />
      <path
         style="fill:none;stroke:#000000;stroke-width:1;stroke-linecap:square;stroke-linejoin:round;stroke-dasharray:none;paint-order:stroke markers fill"
         d="m 167.31964,130.80516 -8.48369,0.0484 v 10 h 9 -9 v -5 l 4.50817,-0.0415"
         id="path7-8" />
      <path
         style="fill:none;stroke:#000000;stroke-width:1;stroke-linecap:square;stroke-linejoin:round;stroke-dasharray:none;paint-order:stroke markers fill"
         d="m 170.18361,140.82794 v -10 c 0,0 9,0 9,3 0,3 -9,3 -9,3"
         id="path8" />
      <path
         style="fill:none;stroke:#000000;stroke-width:1.004;stroke-linecap:square;stroke-linejoin:miter;stroke-dasharray:none;paint-order:stroke markers fill"
         d="M 179.05876,140.58519 184.45689,130.43215 190,141 l -1.90673,-3.42961 h -6.76035"
         id="path11" />
      <path
         style="fill:none;stroke:#000000;stroke-width:1;stroke-linecap:square;stroke-linejoin:round;stroke-dasharray:none;paint-order:stroke markers fill"
         d="m 193.63157,140.82794 v -10 l 9,10 v -10"
         id="path12" />
      <path
         style="fill:none;fill-rule:nonzero;stroke:#000000;stroke-width:1;stroke-linecap:square;stroke-linejoin:round;stroke-dasharray:none;paint-order:stroke markers fill"
         d="m 215.34519,130.88598 c -4,-0.0684 -8,0.5707 -8,3.11793 0,2.45277 7,2.45277 7,4.76059 0,1.93188 -3,2.69218 -8.02077,2.75283"
         id="path13" />
      <path
         style="fill:none;stroke:#000000;stroke-width:1;stroke-linecap:square;stroke-linejoin:round;stroke-dasharray:none;paint-order:stroke markers fill"
         d="m 219.04051,131.01533 0.0442,10.31261 -0.0442,-5.43232 h 8.27266 V 131 141.39155"
         id="path14" />
      <g
         id="g26">
        <path
           style="fill:none;fill-opacity:1;stroke:#000000;stroke-width:1.004;stroke-linecap:square;stroke-linejoin:miter;stroke-dasharray:none;paint-order:stroke markers fill"
           d=""
           id="path25" />
      </g>
    </g>
  </g>
  <g
     id="layer11">
    <circle
       style="display:inline;opacity:0.854839;mix-blend-mode:darken;fill:#000080;stroke-width:10.119;stroke-linejoin:round;stroke-dasharray:none;filter:url(#filter28)"
       id="path1-9-3"
       cx="184.44759"
       cy="95"
       r="6.7399163" />
    <circle
       style="display:inline;opacity:0.964516;mix-blend-mode:darken;fill:#0000ff;fill-opacity:1;stroke-width:10.119;stroke-linejoin:round;stroke-dasharray:none;filter:url(#filter28-6)"
       id="path1-9-3-4"
       cx="184.52943"
       cy="94.911613"
       r="6.7399163"
       transform="matrix(1.2767578,0,0,1.2767578,-51.069954,-26.267527)" />
  </g>
</svg>
